<!--?xml version="1.0" encoding="utf-8"?-->
<!-- Generator: Adobe Illustrator 24.1.1, SVG Export Plug-In . SVG Version: 6.00 Build 0)  -->
<svg version="1.1" id="_x31_0" xmlns="http://www.w3.org/2000/svg" xmlns:xlink="http://www.w3.org/1999/xlink" x="0px" y="0px" viewBox="0 0 512 512" style="width: 16px; height: 16px; opacity: 1;" xml:space="preserve">
<style type="text/css">
	.st0{fill:#374149;}
</style>
<g>
	<path class="st0" d="M464.778,0H47.222C21.133,0.008,0.012,21.141,0.004,47.226v417.555c0.008,26.082,21.129,47.21,47.218,47.218
		h417.555c26.09-0.004,47.214-21.137,47.218-47.218V47.226C511.992,21.141,490.871,0.008,464.778,0z M29.653,47.226
		c0.019-9.699,7.878-17.554,17.57-17.574h417.555c9.699,0.02,17.55,7.875,17.57,17.574v417.555
		c-0.02,9.695-7.867,17.546-17.57,17.566H47.222c-9.691-0.02-17.55-7.871-17.57-17.566V47.226z" style="fill: rgb(51, 51, 51);"></path>
</g>
</svg>
